<?xml version="1.0" encoding="UTF-8"?>
<svg xmlns="http://www.w3.org/2000/svg" width="1100" height="760" viewBox="0 0 1100 760">
<style>
text { font-family: 'Microsoft YaHei', 'Noto Sans CJK SC', Arial, sans-serif; fill: #111827; }
.axis { stroke: #111827; stroke-width: 1.6; }
.grid { stroke: #e5e7eb; stroke-width: 1; }
.tick { font-size: 13px; fill: #374151; }
.label { font-size: 17px; font-weight: 600; }
.title { font-size: 26px; font-weight: 700; }
.subtitle { font-size: 14px; fill: #4b5563; }
.legend { font-size: 13px; fill: #1f2937; }
</style>
<rect width="100%" height="100%" fill="#ffffff"/>
<text class="title" x="96" y="38">无人机方案界限线图 — 600m跑道起降约束分析 (V1)</text>
<line class="grid" x1="96.00" y1="88" x2="96.00" y2="668"/>
<text class="tick" text-anchor="middle" x="96.00" y="692">30.0</text>
<line class="grid" x1="234.80" y1="88" x2="234.80" y2="668"/>
<text class="tick" text-anchor="middle" x="234.80" y="692">72.0</text>
<line class="grid" x1="373.60" y1="88" x2="373.60" y2="668"/>
<text class="tick" text-anchor="middle" x="373.60" y="692">114</text>
<line class="grid" x1="512.40" y1="88" x2="512.40" y2="668"/>
<text class="tick" text-anchor="middle" x="512.40" y="692">156</text>
<line class="grid" x1="651.20" y1="88" x2="651.20" y2="668"/>
<text class="tick" text-anchor="middle" x="651.20" y="692">198</text>
<line class="grid" x1="790.00" y1="88" x2="790.00" y2="668"/>
<text class="tick" text-anchor="middle" x="790.00" y="692">240</text>
<line class="grid" x1="96" y1="668.00" x2="790" y2="668.00"/>
<text class="tick" text-anchor="end" x="84" y="672.00">0.1</text>
<line class="grid" x1="96" y1="552.00" x2="790" y2="552.00"/>
<text class="tick" text-anchor="end" x="84" y="556.00">0.19</text>
<line class="grid" x1="96" y1="436.00" x2="790" y2="436.00"/>
<text class="tick" text-anchor="end" x="84" y="440.00">0.28</text>
<line class="grid" x1="96" y1="320.00" x2="790" y2="320.00"/>
<text class="tick" text-anchor="end" x="84" y="324.00">0.37</text>
<line class="grid" x1="96" y1="204.00" x2="790" y2="204.00"/>
<text class="tick" text-anchor="end" x="84" y="208.00">0.46</text>
<line class="grid" x1="96" y1="88.00" x2="790" y2="88.00"/>
<text class="tick" text-anchor="end" x="84" y="92.00">0.55</text>
<rect x="96" y="88" width="694" height="580" fill="none" class="axis"/>
<text class="label" text-anchor="middle" x="443.00" y="730">翼载荷 W/S (kg/m²)</text>
<text class="label" text-anchor="middle" transform="translate(28,378.00) rotate(-90)">推重比 T/W (海平面)</text>
<polygon points="195.14,448.89 608.24,384.44 608.24,178.22 195.14,178.22" fill="#2ca02c" opacity="0.120" stroke="#2ca02c" stroke-width="1.2"/>
<polygon points="195.14,448.89 492.57,410.22 492.57,178.22 195.14,178.22" fill="#2ca02c" opacity="0.120" stroke="#2ca02c" stroke-width="1.2"/>
<polyline points="129.05,626.76 228.19,603.56 327.33,577.78 426.48,549.42 525.62,518.49 624.76,484.98 723.90,448.89" fill="none" stroke="#1f77b4" stroke-width="2.4" stroke-linejoin="round" stroke-linecap="round"/>
<text class="legend" x="434.48" y="541.42" fill="#1f77b4">起飞距离 ≤ 600m (C_Lmax_TO=1.6, σ=1.0)</text>
<polyline points="651.20,668.00 651.20,88.00" fill="none" stroke="#d62728" stroke-width="2.4" stroke-linejoin="round" stroke-linecap="round"/>
<text class="legend" x="659.20" y="80.00" fill="#d62728">着陆距离 ≤ 600m (C_Lmax_L=2.2)</text>
<polyline points="532.23,668.00 532.23,88.00" fill="none" stroke="#2ca02c" stroke-width="2.4" stroke-linejoin="round" stroke-linecap="round"/>
<text class="legend" x="540.23" y="80.00" fill="#2ca02c">着陆距离 ≤ 600m (C_Lmax_L=1.8, 襟翼简化方案)</text>
<polyline points="129.05,567.47 228.19,557.16 327.33,546.84 426.48,535.24 525.62,522.36 624.76,509.47 723.90,495.29" fill="none" stroke="#9467bd" stroke-width="2.4" stroke-linejoin="round" stroke-linecap="round"/>
<text class="legend" x="434.48" y="527.24" fill="#9467bd">海平面爬升率 ≥ 3 m/s (V=35m/s, L/D=10)</text>
<polyline points="129.05,586.80 228.19,573.91 327.33,557.16 426.48,536.53 525.62,513.33 624.76,486.27 723.90,456.62" fill="none" stroke="#ff7f0e" stroke-width="2.4" stroke-linejoin="round" stroke-linecap="round"/>
<text class="legend" x="434.48" y="528.53" fill="#ff7f0e">巡航速度 ≥ 180 km/h @4000m (L/D=14, ηp=0.82)</text>
<polyline points="129.05,552.00 228.19,539.11 327.33,521.07 426.48,501.73 525.62,478.53 624.76,452.76 723.90,424.40" fill="none" stroke="#17becf" stroke-width="2.4" stroke-linejoin="round" stroke-linecap="round"/>
<text class="legend" x="434.48" y="493.73" fill="#17becf">使用升限 ≥ 5000m (RC=0.5m/s, 功率衰减0.55)</text>
<circle cx="287.68" cy="436.00" r="6.5" fill="#111827" stroke="#ffffff" stroke-width="2"/>
<line x1="278.68" y1="436.00" x2="296.68" y2="436.00" stroke="#111827" stroke-width="1.4"/>
<line x1="287.68" y1="427.00" x2="287.68" y2="445.00" stroke="#111827" stroke-width="1.4"/>
<text class="legend" x="299.68" y="426.00">推荐设计点 V1 (88, 0.28)</text>
<circle cx="360.38" cy="423.11" r="6.5" fill="#111827" stroke="#ffffff" stroke-width="2"/>
<line x1="351.38" y1="423.11" x2="369.38" y2="423.11" stroke="#111827" stroke-width="1.4"/>
<line x1="360.38" y1="414.11" x2="360.38" y2="432.11" stroke="#111827" stroke-width="1.4"/>
<text class="legend" x="372.38" y="413.11">可选设计点 (小翼面积) (110, 0.29)</text>
<circle cx="287.68" cy="436.00" r="6.5" fill="#111827" stroke="#ffffff" stroke-width="2"/>
<line x1="278.68" y1="436.00" x2="296.68" y2="436.00" stroke="#111827" stroke-width="1.4"/>
<line x1="287.68" y1="427.00" x2="287.68" y2="445.00" stroke="#111827" stroke-width="1.4"/>
<text class="legend" x="299.68" y="426.00">基线 V0 设计点 (88, 0.28)</text>
<circle cx="287.68" cy="513.33" r="6.5" fill="#111827" stroke="#ffffff" stroke-width="2"/>
<line x1="278.68" y1="513.33" x2="296.68" y2="513.33" stroke="#111827" stroke-width="1.4"/>
<line x1="287.68" y1="504.33" x2="287.68" y2="522.33" stroke="#111827" stroke-width="1.4"/>
<text class="legend" x="299.68" y="503.33">MQ-1 参考 (估) (88, 0.22)</text>
<circle cx="525.62" cy="410.22" r="6.5" fill="#111827" stroke="#ffffff" stroke-width="2"/>
<line x1="516.62" y1="410.22" x2="534.62" y2="410.22" stroke="#111827" stroke-width="1.4"/>
<line x1="525.62" y1="401.22" x2="525.62" y2="419.22" stroke="#111827" stroke-width="1.4"/>
<text class="legend" x="537.62" y="400.22">MQ-9 参考 (估) (160, 0.3)</text>
<text class="label" x="832" y="88">图例与可行侧</text>
<line x1="832" y1="112" x2="860" y2="112" stroke="#1f77b4" stroke-width="3"/>
<text class="legend" x="870" y="116">起飞距离 ≤ 600m (C_Lmax_TO=1.6, σ=1.0)；可行侧：上方</text>
<line x1="832" y1="136" x2="860" y2="136" stroke="#d62728" stroke-width="3"/>
<text class="legend" x="870" y="140">着陆距离 ≤ 600m (C_Lmax_L=2.2)；可行侧：左侧</text>
<line x1="832" y1="160" x2="860" y2="160" stroke="#2ca02c" stroke-width="3"/>
<text class="legend" x="870" y="164">着陆距离 ≤ 600m (C_Lmax_L=1.8, 襟翼简化方案)；可行侧：左侧</text>
<line x1="832" y1="184" x2="860" y2="184" stroke="#9467bd" stroke-width="3"/>
<text class="legend" x="870" y="188">海平面爬升率 ≥ 3 m/s (V=35m/s, L/D=10)；可行侧：上方</text>
<line x1="832" y1="208" x2="860" y2="208" stroke="#ff7f0e" stroke-width="3"/>
<text class="legend" x="870" y="212">巡航速度 ≥ 180 km/h @4000m (L/D=14, ηp=0.82)；可行侧：上方</text>
<line x1="832" y1="232" x2="860" y2="232" stroke="#17becf" stroke-width="3"/>
<text class="legend" x="870" y="236">使用升限 ≥ 5000m (RC=0.5m/s, 功率衰减0.55)；可行侧：上方</text>
<rect x="832" y="247" width="28" height="14" fill="#2ca02c" opacity="0.120"/>
<text class="legend" x="870" y="260">可行域 V1 (C_Lmax_L=2.2)</text>
<rect x="832" y="271" width="28" height="14" fill="#2ca02c" opacity="0.120"/>
<text class="legend" x="870" y="284">可行域 V1 (C_Lmax_L=1.8)</text>
</svg>
