<?xml version="1.0" encoding="UTF-8"?>
<svg xmlns="http://www.w3.org/2000/svg" width="1100" height="760" viewBox="0 0 1100 760">
<style>
text { font-family: 'Microsoft YaHei', 'Noto Sans CJK SC', Arial, sans-serif; fill: #111827; }
.axis { stroke: #111827; stroke-width: 1.6; }
.grid { stroke: #e5e7eb; stroke-width: 1; }
.tick { font-size: 13px; fill: #374151; }
.label { font-size: 17px; font-weight: 600; }
.title { font-size: 26px; font-weight: 700; }
.subtitle { font-size: 14px; fill: #4b5563; }
.legend { font-size: 13px; fill: #1f2937; }
</style>
<rect width="100%" height="100%" fill="#ffffff"/>
<text class="title" x="96" y="38">方案界限线图 - 1200km航程/500kg载荷 UAV</text>
<line class="grid" x1="96.00" y1="88" x2="96.00" y2="668"/>
<text class="tick" text-anchor="middle" x="96.00" y="692">100</text>
<line class="grid" x1="234.80" y1="88" x2="234.80" y2="668"/>
<text class="tick" text-anchor="middle" x="234.80" y="692">170</text>
<line class="grid" x1="373.60" y1="88" x2="373.60" y2="668"/>
<text class="tick" text-anchor="middle" x="373.60" y="692">240</text>
<line class="grid" x1="512.40" y1="88" x2="512.40" y2="668"/>
<text class="tick" text-anchor="middle" x="512.40" y="692">310</text>
<line class="grid" x1="651.20" y1="88" x2="651.20" y2="668"/>
<text class="tick" text-anchor="middle" x="651.20" y="692">380</text>
<line class="grid" x1="790.00" y1="88" x2="790.00" y2="668"/>
<text class="tick" text-anchor="middle" x="790.00" y="692">450</text>
<line class="grid" x1="96" y1="668.00" x2="790" y2="668.00"/>
<text class="tick" text-anchor="end" x="84" y="672.00">0.1</text>
<line class="grid" x1="96" y1="552.00" x2="790" y2="552.00"/>
<text class="tick" text-anchor="end" x="84" y="556.00">0.24</text>
<line class="grid" x1="96" y1="436.00" x2="790" y2="436.00"/>
<text class="tick" text-anchor="end" x="84" y="440.00">0.38</text>
<line class="grid" x1="96" y1="320.00" x2="790" y2="320.00"/>
<text class="tick" text-anchor="end" x="84" y="324.00">0.52</text>
<line class="grid" x1="96" y1="204.00" x2="790" y2="204.00"/>
<text class="tick" text-anchor="end" x="84" y="208.00">0.66</text>
<line class="grid" x1="96" y1="88.00" x2="790" y2="88.00"/>
<text class="tick" text-anchor="end" x="84" y="92.00">0.8</text>
<rect x="96" y="88" width="694" height="580" fill="none" class="axis"/>
<text class="label" text-anchor="middle" x="443.00" y="730">翼载荷 W/S (kg/m^2)</text>
<text class="label" text-anchor="middle" transform="translate(28,378.00) rotate(-90)">推重比 T/W</text>
<polygon points="135.66,336.57 500.50,336.57 500.50,626.57 135.66,626.57" fill="#2ca02c" opacity="0.120" stroke="#2ca02c" stroke-width="1.2"/>
<polyline points="135.66,642.31 254.63,588.46 373.60,534.60 492.57,479.91 611.54,426.06 730.51,372.20" fill="none" stroke="#1f77b4" stroke-width="2.4" stroke-linejoin="round" stroke-linecap="round"/>
<text class="legend" x="500.57" y="471.91" fill="#1f77b4">起飞距离 ≤ 600m (above)</text>
<polyline points="500.50,668.00 500.50,88.00" fill="none" stroke="#d62728" stroke-width="2.4" stroke-linejoin="round" stroke-linecap="round"/>
<text class="legend" x="508.50" y="80.00" fill="#d62728">着陆距离 ≤ 600m (left: W/S ≤ 304)</text>
<polyline points="135.66,691.20 254.63,676.29 373.60,655.57 492.57,627.40 611.54,592.60" fill="none" stroke="#2ca02c" stroke-width="2.4" stroke-linejoin="round" stroke-linecap="round"/>
<text class="legend" x="381.60" y="647.57" fill="#2ca02c">海平面爬升率 ≥ 3m/s (above)</text>
<polyline points="135.66,717.71 254.63,712.74 373.60,705.29 492.57,694.51 611.54,680.43" fill="none" stroke="#9467bd" stroke-width="2.4" stroke-linejoin="round" stroke-linecap="round"/>
<text class="legend" x="381.60" y="697.29" fill="#9467bd">4000m巡航平飞 (above)</text>
<circle cx="393.43" cy="502.29" r="6.5" fill="#111827" stroke="#ffffff" stroke-width="2"/>
<line x1="384.43" y1="502.29" x2="402.43" y2="502.29" stroke="#111827" stroke-width="1.4"/>
<line x1="393.43" y1="493.29" x2="393.43" y2="511.29" stroke="#111827" stroke-width="1.4"/>
<text class="legend" x="405.43" y="492.29">推荐设计点 V0 (250, 0.3)</text>
<circle cx="294.29" cy="523.00" r="6.5" fill="#111827" stroke="#ffffff" stroke-width="2"/>
<line x1="285.29" y1="523.00" x2="303.29" y2="523.00" stroke="#111827" stroke-width="1.4"/>
<line x1="294.29" y1="514.00" x2="294.29" y2="532.00" stroke="#111827" stroke-width="1.4"/>
<text class="legend" x="306.29" y="513.00">备选点1 (低翼载) (200, 0.275)</text>
<circle cx="492.57" cy="444.29" r="6.5" fill="#111827" stroke="#ffffff" stroke-width="2"/>
<line x1="483.57" y1="444.29" x2="501.57" y2="444.29" stroke="#111827" stroke-width="1.4"/>
<line x1="492.57" y1="435.29" x2="492.57" y2="453.29" stroke="#111827" stroke-width="1.4"/>
<text class="legend" x="504.57" y="434.29">备选点2 (高翼载) (300, 0.37)</text>
<text class="label" x="832" y="88">图例与可行侧</text>
<line x1="832" y1="112" x2="860" y2="112" stroke="#1f77b4" stroke-width="3"/>
<text class="legend" x="870" y="116">起飞距离 ≤ 600m (above)；可行侧：上方</text>
<line x1="832" y1="136" x2="860" y2="136" stroke="#d62728" stroke-width="3"/>
<text class="legend" x="870" y="140">着陆距离 ≤ 600m (left: W/S ≤ 304)；可行侧：左侧</text>
<line x1="832" y1="160" x2="860" y2="160" stroke="#2ca02c" stroke-width="3"/>
<text class="legend" x="870" y="164">海平面爬升率 ≥ 3m/s (above)；可行侧：上方</text>
<line x1="832" y1="184" x2="860" y2="184" stroke="#9467bd" stroke-width="3"/>
<text class="legend" x="870" y="188">4000m巡航平飞 (above)；可行侧：上方</text>
<rect x="832" y="199" width="28" height="14" fill="#2ca02c" opacity="0.120"/>
<text class="legend" x="870" y="212">初选可行域</text>
</svg>
