<?xml version="1.0" encoding="UTF-8"?>
<svg xmlns="http://www.w3.org/2000/svg" width="1100" height="760" viewBox="0 0 1100 760">
<style>
text { font-family: 'Microsoft YaHei', 'Noto Sans CJK SC', Arial, sans-serif; fill: #111827; }
.axis { stroke: #111827; stroke-width: 1.6; }
.grid { stroke: #e5e7eb; stroke-width: 1; }
.tick { font-size: 13px; fill: #374151; }
.label { font-size: 17px; font-weight: 600; }
.title { font-size: 26px; font-weight: 700; }
.subtitle { font-size: 14px; fill: #4b5563; }
.legend { font-size: 13px; fill: #1f2937; }
</style>
<rect width="100%" height="100%" fill="#ffffff"/>
<text class="title" x="96" y="38">固定翼无人机方案界限线图 - 航程1200km 载荷500kg</text>
<line class="grid" x1="96.00" y1="88" x2="96.00" y2="668"/>
<text class="tick" text-anchor="middle" x="96.00" y="692">40.0</text>
<line class="grid" x1="234.80" y1="88" x2="234.80" y2="668"/>
<text class="tick" text-anchor="middle" x="234.80" y="692">84.0</text>
<line class="grid" x1="373.60" y1="88" x2="373.60" y2="668"/>
<text class="tick" text-anchor="middle" x="373.60" y="692">128</text>
<line class="grid" x1="512.40" y1="88" x2="512.40" y2="668"/>
<text class="tick" text-anchor="middle" x="512.40" y="692">172</text>
<line class="grid" x1="651.20" y1="88" x2="651.20" y2="668"/>
<text class="tick" text-anchor="middle" x="651.20" y="692">216</text>
<line class="grid" x1="790.00" y1="88" x2="790.00" y2="668"/>
<text class="tick" text-anchor="middle" x="790.00" y="692">260</text>
<line class="grid" x1="96" y1="668.00" x2="790" y2="668.00"/>
<text class="tick" text-anchor="end" x="84" y="672.00">0.04</text>
<line class="grid" x1="96" y1="552.00" x2="790" y2="552.00"/>
<text class="tick" text-anchor="end" x="84" y="556.00">0.1</text>
<line class="grid" x1="96" y1="436.00" x2="790" y2="436.00"/>
<text class="tick" text-anchor="end" x="84" y="440.00">0.15</text>
<line class="grid" x1="96" y1="320.00" x2="790" y2="320.00"/>
<text class="tick" text-anchor="end" x="84" y="324.00">0.21</text>
<line class="grid" x1="96" y1="204.00" x2="790" y2="204.00"/>
<text class="tick" text-anchor="end" x="84" y="208.00">0.26</text>
<line class="grid" x1="96" y1="88.00" x2="790" y2="88.00"/>
<text class="tick" text-anchor="end" x="84" y="92.00">0.32</text>
<rect x="96" y="88" width="694" height="580" fill="none" class="axis"/>
<text class="label" text-anchor="middle" x="443.00" y="730">翼载荷 W/S (kg/m²)</text>
<text class="label" text-anchor="middle" transform="translate(28,378.00) rotate(-90)">推重比 T/W</text>
<polygon points="159.09,460.86 695.36,460.86 695.36,170.86 159.09,170.86" fill="#2ca02c" opacity="0.120" stroke="#2ca02c" stroke-width="1.2"/>
<polyline points="127.55,639.00 222.18,570.64 316.82,502.29 411.45,436.00 506.09,367.64 600.73,299.29 695.36,233.00" fill="none" stroke="#1f77b4" stroke-width="2.4" stroke-linejoin="round" stroke-linecap="round"/>
<text class="legend" x="419.45" y="428.00" fill="#1f77b4">起飞距离约束 (600m)</text>
<polyline points="726.91,668.00 726.91,88.00" fill="none" stroke="#d62728" stroke-width="2.4" stroke-linejoin="round" stroke-linecap="round"/>
<text class="legend" x="734.91" y="80.00" fill="#d62728">着陆距离约束 (500m)</text>
<polyline points="127.55,516.79 222.18,520.93 316.82,520.93 411.45,514.71 506.09,504.36 600.73,491.93 695.36,477.43 758.45,465.00" fill="none" stroke="#2ca02c" stroke-width="2.4" stroke-linejoin="round" stroke-linecap="round"/>
<text class="legend" x="514.09" y="496.36" fill="#2ca02c">爬升梯度约束 (5%, SL)</text>
<polyline points="127.55,560.29 222.18,589.29 316.82,597.57 411.45,601.71 506.09,597.57 600.73,593.43 695.36,585.14 758.45,578.93" fill="none" stroke="#9467bd" stroke-width="2.4" stroke-linejoin="round" stroke-linecap="round"/>
<text class="legend" x="514.09" y="589.57" fill="#9467bd">巡航约束 (4000m, 220km/h)</text>
<polyline points="159.09,552.00 253.73,558.21 348.36,560.29 443.00,562.36 537.64,558.21 632.27,554.07 726.91,547.86" fill="none" stroke="#ff7f0e" stroke-width="2.4" stroke-linejoin="round" stroke-linecap="round"/>
<text class="legend" x="451.00" y="554.36" fill="#ff7f0e">升限约束 (6000m, 0.5m/s)</text>
<circle cx="316.82" cy="440.14" r="6.5" fill="#111827" stroke="#ffffff" stroke-width="2"/>
<line x1="307.82" y1="440.14" x2="325.82" y2="440.14" stroke="#111827" stroke-width="1.4"/>
<line x1="316.82" y1="431.14" x2="316.82" y2="449.14" stroke="#111827" stroke-width="1.4"/>
<text class="legend" x="328.82" y="430.14">推荐设计点 V0 (110, 0.15)</text>
<circle cx="253.73" cy="471.21" r="6.5" fill="#111827" stroke="#ffffff" stroke-width="2"/>
<line x1="244.73" y1="471.21" x2="262.73" y2="471.21" stroke="#111827" stroke-width="1.4"/>
<line x1="253.73" y1="462.21" x2="253.73" y2="480.21" stroke="#111827" stroke-width="1.4"/>
<text class="legend" x="265.73" y="461.21">备选方案 A (低翼载) (90, 0.135)</text>
<circle cx="411.45" cy="398.71" r="6.5" fill="#111827" stroke="#ffffff" stroke-width="2"/>
<line x1="402.45" y1="398.71" x2="420.45" y2="398.71" stroke="#111827" stroke-width="1.4"/>
<line x1="411.45" y1="389.71" x2="411.45" y2="407.71" stroke="#111827" stroke-width="1.4"/>
<text class="legend" x="423.45" y="388.71">备选方案 B (高翼载) (140, 0.17)</text>
<text class="label" x="832" y="88">图例与可行侧</text>
<line x1="832" y1="112" x2="860" y2="112" stroke="#1f77b4" stroke-width="3"/>
<text class="legend" x="870" y="116">起飞距离约束 (600m)；可行侧：上方</text>
<line x1="832" y1="136" x2="860" y2="136" stroke="#d62728" stroke-width="3"/>
<text class="legend" x="870" y="140">着陆距离约束 (500m)；可行侧：左侧</text>
<line x1="832" y1="160" x2="860" y2="160" stroke="#2ca02c" stroke-width="3"/>
<text class="legend" x="870" y="164">爬升梯度约束 (5%, SL)；可行侧：上方</text>
<line x1="832" y1="184" x2="860" y2="184" stroke="#9467bd" stroke-width="3"/>
<text class="legend" x="870" y="188">巡航约束 (4000m, 220km/h)；可行侧：上方</text>
<line x1="832" y1="208" x2="860" y2="208" stroke="#ff7f0e" stroke-width="3"/>
<text class="legend" x="870" y="212">升限约束 (6000m, 0.5m/s)；可行侧：上方</text>
<rect x="832" y="223" width="28" height="14" fill="#2ca02c" opacity="0.120"/>
<text class="legend" x="870" y="236">可行域</text>
</svg>
