<?xml version="1.0" encoding="UTF-8"?>
<svg xmlns="http://www.w3.org/2000/svg" width="1100" height="760" viewBox="0 0 1100 760">
<style>
text { font-family: 'Microsoft YaHei', 'Noto Sans CJK SC', Arial, sans-serif; fill: #111827; }
.axis { stroke: #111827; stroke-width: 1.6; }
.grid { stroke: #e5e7eb; stroke-width: 1; }
.tick { font-size: 13px; fill: #374151; }
.label { font-size: 17px; font-weight: 600; }
.title { font-size: 26px; font-weight: 700; }
.subtitle { font-size: 14px; fill: #4b5563; }
.legend { font-size: 13px; fill: #1f2937; }
</style>
<rect width="100%" height="100%" fill="#ffffff"/>
<text class="title" x="96" y="38">方案界限线图 — 1200km/500kg 固定翼无人机</text>
<line class="grid" x1="96.00" y1="88" x2="96.00" y2="668"/>
<text class="tick" text-anchor="middle" x="96.00" y="692">50.0</text>
<line class="grid" x1="234.80" y1="88" x2="234.80" y2="668"/>
<text class="tick" text-anchor="middle" x="234.80" y="692">84.0</text>
<line class="grid" x1="373.60" y1="88" x2="373.60" y2="668"/>
<text class="tick" text-anchor="middle" x="373.60" y="692">118</text>
<line class="grid" x1="512.40" y1="88" x2="512.40" y2="668"/>
<text class="tick" text-anchor="middle" x="512.40" y="692">152</text>
<line class="grid" x1="651.20" y1="88" x2="651.20" y2="668"/>
<text class="tick" text-anchor="middle" x="651.20" y="692">186</text>
<line class="grid" x1="790.00" y1="88" x2="790.00" y2="668"/>
<text class="tick" text-anchor="middle" x="790.00" y="692">220</text>
<line class="grid" x1="96" y1="668.00" x2="790" y2="668.00"/>
<text class="tick" text-anchor="end" x="84" y="672.00">0.12</text>
<line class="grid" x1="96" y1="552.00" x2="790" y2="552.00"/>
<text class="tick" text-anchor="end" x="84" y="556.00">0.21</text>
<line class="grid" x1="96" y1="436.00" x2="790" y2="436.00"/>
<text class="tick" text-anchor="end" x="84" y="440.00">0.29</text>
<line class="grid" x1="96" y1="320.00" x2="790" y2="320.00"/>
<text class="tick" text-anchor="end" x="84" y="324.00">0.38</text>
<line class="grid" x1="96" y1="204.00" x2="790" y2="204.00"/>
<text class="tick" text-anchor="end" x="84" y="208.00">0.46</text>
<line class="grid" x1="96" y1="88.00" x2="790" y2="88.00"/>
<text class="tick" text-anchor="end" x="84" y="92.00">0.55</text>
<rect x="96" y="88" width="694" height="580" fill="none" class="axis"/>
<text class="label" text-anchor="middle" x="443.00" y="730">翼载荷 W/S (kg/m²)</text>
<text class="label" text-anchor="middle" transform="translate(28,378.00) rotate(-90)">推重比 T/W</text>
<polygon points="177.65,452.19 463.41,411.72 463.41,222.88 177.65,222.88" fill="#2ca02c" opacity="0.120" stroke="#2ca02c" stroke-width="1.2"/>
<polyline points="136.82,614.05 218.47,573.58 300.12,533.12 381.76,479.16 463.41,425.21 545.06,371.26 626.71,303.81 708.35,236.37" fill="none" stroke="#1f77b4" stroke-width="2.4" stroke-linejoin="round" stroke-linecap="round"/>
<text class="legend" x="471.41" y="417.21" fill="#1f77b4">起飞距离 ≤800m (ISA SL, CLmax=1.8)</text>
<polyline points="524.65,668.00 524.65,88.00" fill="none" stroke="#d62728" stroke-width="2.4" stroke-linejoin="round" stroke-linecap="round"/>
<text class="legend" x="532.65" y="80.00" fill="#d62728">着陆距离 ≤700m (CLmax_L=2.2)</text>
<polyline points="136.82,600.56 218.47,600.56 300.12,600.56 381.76,587.07 463.41,587.07 545.06,573.58 626.71,560.09 708.35,546.60" fill="none" stroke="#2ca02c" stroke-width="2.4" stroke-linejoin="round" stroke-linecap="round"/>
<text class="legend" x="471.41" y="579.07" fill="#2ca02c">爬升率 ≥5 m/s @SL (L/D_cl=10)</text>
<polyline points="136.82,438.70 218.47,533.12 300.12,573.58 381.76,614.05 463.41,627.53 545.06,654.51 626.71,668.00 708.35,681.49" fill="none" stroke="#9467bd" stroke-width="2.4" stroke-linejoin="round" stroke-linecap="round"/>
<text class="legend" x="471.41" y="619.53" fill="#9467bd">巡航速度 ≥250 km/h @3000m</text>
<polyline points="136.82,533.12 218.47,546.60 300.12,560.09 381.76,560.09 463.41,573.58 545.06,573.58 626.71,573.58 708.35,560.09" fill="none" stroke="#ff7f0e" stroke-width="2.4" stroke-linejoin="round" stroke-linecap="round"/>
<text class="legend" x="471.41" y="565.58" fill="#ff7f0e">实用升限 ≥6000m (RC=0.5m/s)</text>
<circle cx="320.53" cy="479.16" r="6.5" fill="#111827" stroke="#ffffff" stroke-width="2"/>
<line x1="311.53" y1="479.16" x2="329.53" y2="479.16" stroke="#111827" stroke-width="1.4"/>
<line x1="320.53" y1="470.16" x2="320.53" y2="488.16" stroke="#111827" stroke-width="1.4"/>
<text class="legend" x="332.53" y="469.16">推荐设计点 (105, 0.26)</text>
<text class="label" x="832" y="88">图例与可行侧</text>
<line x1="832" y1="112" x2="860" y2="112" stroke="#1f77b4" stroke-width="3"/>
<text class="legend" x="870" y="116">起飞距离 ≤800m (ISA SL, CLmax=1.8)；可行侧：上方</text>
<line x1="832" y1="136" x2="860" y2="136" stroke="#d62728" stroke-width="3"/>
<text class="legend" x="870" y="140">着陆距离 ≤700m (CLmax_L=2.2)；可行侧：左侧</text>
<line x1="832" y1="160" x2="860" y2="160" stroke="#2ca02c" stroke-width="3"/>
<text class="legend" x="870" y="164">爬升率 ≥5 m/s @SL (L/D_cl=10)；可行侧：上方</text>
<line x1="832" y1="184" x2="860" y2="184" stroke="#9467bd" stroke-width="3"/>
<text class="legend" x="870" y="188">巡航速度 ≥250 km/h @3000m；可行侧：上方</text>
<line x1="832" y1="208" x2="860" y2="208" stroke="#ff7f0e" stroke-width="3"/>
<text class="legend" x="870" y="212">实用升限 ≥6000m (RC=0.5m/s)；可行侧：上方</text>
<rect x="832" y="223" width="28" height="14" fill="#2ca02c" opacity="0.120"/>
<text class="legend" x="870" y="236">初选可行域</text>
</svg>
