<?xml version="1.0" encoding="UTF-8"?>
<svg xmlns="http://www.w3.org/2000/svg" width="1100" height="760" viewBox="0 0 1100 760">
<style>
text { font-family: 'Microsoft YaHei', 'Noto Sans CJK SC', Arial, sans-serif; fill: #111827; }
.axis { stroke: #111827; stroke-width: 1.6; }
.grid { stroke: #e5e7eb; stroke-width: 1; }
.tick { font-size: 13px; fill: #374151; }
.label { font-size: 17px; font-weight: 600; }
.title { font-size: 26px; font-weight: 700; }
.subtitle { font-size: 14px; fill: #4b5563; }
.legend { font-size: 13px; fill: #1f2937; }
</style>
<rect width="100%" height="100%" fill="#ffffff"/>
<text class="title" x="96" y="38">无人机方案界限线图 — 1200km航程 / 500kg载荷</text>
<line class="grid" x1="96.00" y1="88" x2="96.00" y2="668"/>
<text class="tick" text-anchor="middle" x="96.00" y="692">60.0</text>
<line class="grid" x1="234.80" y1="88" x2="234.80" y2="668"/>
<text class="tick" text-anchor="middle" x="234.80" y="692">112</text>
<line class="grid" x1="373.60" y1="88" x2="373.60" y2="668"/>
<text class="tick" text-anchor="middle" x="373.60" y="692">164</text>
<line class="grid" x1="512.40" y1="88" x2="512.40" y2="668"/>
<text class="tick" text-anchor="middle" x="512.40" y="692">216</text>
<line class="grid" x1="651.20" y1="88" x2="651.20" y2="668"/>
<text class="tick" text-anchor="middle" x="651.20" y="692">268</text>
<line class="grid" x1="790.00" y1="88" x2="790.00" y2="668"/>
<text class="tick" text-anchor="middle" x="790.00" y="692">320</text>
<line class="grid" x1="96" y1="668.00" x2="790" y2="668.00"/>
<text class="tick" text-anchor="end" x="84" y="672.00">0.08</text>
<line class="grid" x1="96" y1="552.00" x2="790" y2="552.00"/>
<text class="tick" text-anchor="end" x="84" y="556.00">0.17</text>
<line class="grid" x1="96" y1="436.00" x2="790" y2="436.00"/>
<text class="tick" text-anchor="end" x="84" y="440.00">0.27</text>
<line class="grid" x1="96" y1="320.00" x2="790" y2="320.00"/>
<text class="tick" text-anchor="end" x="84" y="324.00">0.36</text>
<line class="grid" x1="96" y1="204.00" x2="790" y2="204.00"/>
<text class="tick" text-anchor="end" x="84" y="208.00">0.46</text>
<line class="grid" x1="96" y1="88.00" x2="790" y2="88.00"/>
<text class="tick" text-anchor="end" x="84" y="92.00">0.55</text>
<rect x="96" y="88" width="694" height="580" fill="none" class="axis"/>
<text class="label" text-anchor="middle" x="443.00" y="730">翼载荷 W/S (kg/m²)</text>
<text class="label" text-anchor="middle" transform="translate(28,378.00) rotate(-90)">推重比 T/W</text>
<polygon points="229.46,470.55 523.08,464.38 523.08,248.43 229.46,248.43" fill="#2ca02c" opacity="0.120" stroke="#2ca02c" stroke-width="1.2"/>
<polyline points="149.38,670.47 256.15,622.34 362.92,574.21 469.69,526.09 603.15,465.62 736.62,405.15" fill="none" stroke="#1f77b4" stroke-width="2.4" stroke-linejoin="round" stroke-linecap="round"/>
<text class="legend" x="477.69" y="518.09" fill="#1f77b4">起飞距离约束 (≤800m, 海平面)</text>
<polyline points="576.46,668.00 576.46,88.00" fill="none" stroke="#d62728" stroke-width="2.4" stroke-linejoin="round" stroke-linecap="round"/>
<text class="legend" x="584.46" y="80.00" fill="#d62728">着陆距离约束 (≤700m)</text>
<polyline points="149.38,674.17 256.15,670.47 362.92,663.06 469.69,654.43 603.15,640.85 736.62,624.81" fill="none" stroke="#2ca02c" stroke-width="2.4" stroke-linejoin="round" stroke-linecap="round"/>
<text class="legend" x="477.69" y="646.43" fill="#2ca02c">爬升率约束 (≥3 m/s 海平面)</text>
<polyline points="149.38,630.98 256.15,624.81 362.92,616.17 469.69,606.30 603.15,591.49 736.62,574.21" fill="none" stroke="#9467bd" stroke-width="2.4" stroke-linejoin="round" stroke-linecap="round"/>
<text class="legend" x="477.69" y="598.30" fill="#9467bd">巡航速度约束 (≥300 km/h @ 6000m)</text>
<polyline points="149.38,587.79 256.15,581.62 362.92,571.74 469.69,559.40 603.15,542.13 736.62,522.38" fill="none" stroke="#ff7f0e" stroke-width="2.4" stroke-linejoin="round" stroke-linecap="round"/>
<text class="legend" x="477.69" y="551.40" fill="#ff7f0e">使用升限约束 (≥8000m)</text>
<circle cx="336.23" cy="458.21" r="6.5" fill="#111827" stroke="#ffffff" stroke-width="2"/>
<line x1="327.23" y1="458.21" x2="345.23" y2="458.21" stroke="#111827" stroke-width="1.4"/>
<line x1="336.23" y1="449.21" x2="336.23" y2="467.21" stroke="#111827" stroke-width="1.4"/>
<text class="legend" x="348.23" y="448.21">推荐设计点 V0 (150, 0.25)</text>
<text class="label" x="832" y="88">图例与可行侧</text>
<line x1="832" y1="112" x2="860" y2="112" stroke="#1f77b4" stroke-width="3"/>
<text class="legend" x="870" y="116">起飞距离约束 (≤800m, 海平面)；可行侧：上方</text>
<text class="legend" x="870" y="140" fill="#6b7280">来源：RAG 飞机总体设计 Eq.3.22, β=1.0, α=1.0, kTO=1.2, CLmax=1.8, ρ=1.225</text>
<line x1="832" y1="156" x2="860" y2="156" stroke="#d62728" stroke-width="3"/>
<text class="legend" x="870" y="160">着陆距离约束 (≤700m)；可行侧：左侧</text>
<text class="legend" x="870" y="184" fill="#6b7280">来源：RAG 飞机总体设计 着陆翼载上限, CLmax_land=2.2, σ=1.0</text>
<line x1="832" y1="200" x2="860" y2="200" stroke="#2ca02c" stroke-width="3"/>
<text class="legend" x="870" y="204">爬升率约束 (≥3 m/s 海平面)；可行侧：上方</text>
<text class="legend" x="870" y="228" fill="#6b7280">来源：RAG 飞机总体设计 Eq.3.23, L/D≈18, CD0≈0.025</text>
<line x1="832" y1="244" x2="860" y2="244" stroke="#9467bd" stroke-width="3"/>
<text class="legend" x="870" y="248">巡航速度约束 (≥300 km/h @ 6000m)；可行侧：上方</text>
<text class="legend" x="870" y="272" fill="#6b7280">来源：RAG 飞机总体设计 Eq.3.24, σ=0.54, q=0.5×0.66×83²</text>
<line x1="832" y1="288" x2="860" y2="288" stroke="#ff7f0e" stroke-width="3"/>
<text class="legend" x="870" y="292">使用升限约束 (≥8000m)；可行侧：上方</text>
<text class="legend" x="870" y="316" fill="#6b7280">来源：RAG 飞机总体设计 Eq.3.23 with dh/dt=0.5m/s, σ≈0.43</text>
<rect x="832" y="323" width="28" height="14" fill="#2ca02c" opacity="0.120"/>
<text class="legend" x="870" y="336">初选可行域</text>
<text class="legend" x="832" y="360" fill="#4b5563">约束曲线由RAG教材公式(3.22-3.25)与工程假设参数计算</text>
<text class="legend" x="832" y="379" fill="#4b5563">得到</text>
<text class="legend" x="832" y="398" fill="#4b5563">起飞约束取x_takeoff=800m, CLmax_TO=1.</text>
<text class="legend" x="832" y="417" fill="#4b5563">8, 螺旋桨推进α=1.0</text>
<text class="legend" x="832" y="436" fill="#4b5563">着陆约束CLmax_land=2.2, 翼载上限≈240 kg/</text>
<text class="legend" x="832" y="455" fill="#4b5563">m²</text>
<text class="legend" x="832" y="474" fill="#4b5563">巡航高度6000m (σ≈0.54), 升限8000m (σ≈0</text>
<text class="legend" x="832" y="493" fill="#4b5563">.43)</text>
<text class="legend" x="832" y="512" fill="#4b5563">所有点基于工程假设首轮估算, 需后续CFD/风洞精化</text>
</svg>
